<svg xmlns="http://www.w3.org/2000/svg" viewBox="0 0 250 75"><path id="squiggle" d="M13.25,0H15l1.2.16A13.65,13.65,0,0,1,25,5.24a13.61,13.61,0,0,1,2.91,11.25,13.25,13.25,0,0,1-5,8.49,13.49,13.49,0,0,1-14,2.15A13.58,13.58,0,0,1,.22,16.52C.12,16,.07,15.48,0,15V13.19c.07-.51.13-1,.22-1.54A14,14,0,0,1,11.32.28C12,.15,12.61.09,13.25,0ZM10.74,17.41a5.67,5.67,0,0,1-3.2.95c-.17,0-.42-.08-.49.18s.19.3.35.39a8.13,8.13,0,0,0,7.16.37,8.12,8.12,0,0,0,5.11-7.47,1.18,1.18,0,0,1,.38-.86,11.13,11.13,0,0,0,1-1.08c0-.05,0-.16.05-.24a.63.63,0,0,0-.27,0c-.27.08-.53.18-.77.26.22-.37.43-.75.64-1.13a.88.88,0,0,0,0-.28,1.2,1.2,0,0,0-.28,0L19.23,9a.65.65,0,0,1-.73-.13A3,3,0,0,0,14.63,9a2.87,2.87,0,0,0-1,2.48c0,.22-.06.31-.28.27a1.46,1.46,0,0,0-.22,0,7.9,7.9,0,0,1-5-2.77c-.21-.24-.29-.23-.43.06A3,3,0,0,0,8,12.23l.2.26a.58.58,0,0,1-.16,0l-.35-.14c-.31-.14-.38-.09-.36.24A3,3,0,0,0,8.77,15l.24.16-.11,0c-.64,0-.66,0-.36.62l0,.05A3.09,3.09,0,0,0,10.74,17.41Z"/></svg>