<svg xmlns="http://www.w3.org/2000/svg" viewBox="0 0 200 200.37"><path id="uno" d="M94.14,0h12.11c2.82.37,5.66.68,8.48,1.12,25.61,4,46.77,15.93,63,36.08,18.84,23.45,25.73,50.32,20.71,80-4.15,24.52-15.93,45-35.46,60.36-30.12,23.66-63.83,29.26-99.51,15.28-34.25-13.41-54.6-39.32-61.86-75.4C.84,113.73.52,110,0,106.25V93.75c.5-3.66.91-7.34,1.53-11A99.84,99.84,0,0,1,80.46,2C85,1.1,89.58.65,94.14,0ZM76.33,123.72a40.77,40.77,0,0,1-22.72,6.75c-1.27,0-3-.61-3.48,1.24s1.32,2.2,2.45,2.78c16.54,8.6,33.77,9.86,50.87,2.65,23.18-9.77,34.58-28.31,36.35-53A8.11,8.11,0,0,1,142.46,78a76.24,76.24,0,0,0,6.89-7.67c.33-.39.24-1.14.35-1.73a5.5,5.5,0,0,0-1.91-.15c-1.91.57-3.78,1.29-5.43,1.88,1.5-2.68,3.06-5.35,4.49-8.08.27-.51,0-1.3,0-2a7.41,7.41,0,0,0-2,.23c-2.76,1.11-5.49,2.32-8.24,3.48-1.92.82-3.48.41-5.17-.94A21.66,21.66,0,0,0,104,63.7a20.57,20.57,0,0,0-7.13,17.59c.1,1.58-.38,2.2-1.95,1.91-.51-.1-1-.12-1.55-.2A56.45,56.45,0,0,1,57.77,63.35c-1.47-1.72-2.06-1.67-3,.39C50.87,71.88,51.64,79.61,57,86.88c.4.53.82,1,1.46,1.84a9.09,9.09,0,0,1-1.14-.23c-.85-.33-1.7-.65-2.53-1-2.16-1-2.68-.66-2.54,1.74a21.26,21.26,0,0,0,10.09,17.33l1.74,1.13a5.06,5.06,0,0,1-.82.13c-4.54,0-4.7.23-2.54,4.41.06.12.13.23.19.34C64.18,118.55,69.27,122.13,76.33,123.72Z"/></svg>