<svg xmlns="http://www.w3.org/2000/svg" viewBox="0 0 35 35"><path d="M30.89,17.5a13.32,13.32,0,0,0-4.21-9.73,12.84,12.84,0,0,0,0,19.46A13.32,13.32,0,0,0,30.89,17.5Z" style="fill:#fff"/><path d="M21.22,17.5A13.86,13.86,0,0,1,25.93,7.1a13.38,13.38,0,0,0-16.86,0,13.86,13.86,0,0,1,4.71,10.4A13.86,13.86,0,0,1,9.07,27.9a13.38,13.38,0,0,0,16.86,0A13.86,13.86,0,0,1,21.22,17.5Z" style="fill:#fff"/><path d="M4.11,17.5a13.32,13.32,0,0,0,4.21,9.73,12.84,12.84,0,0,0,4.46-9.73A12.84,12.84,0,0,0,8.32,7.77,13.32,13.32,0,0,0,4.11,17.5Z" style="fill:#fff"/></svg>